<?xml version="1.0" encoding="UTF-8"?>
<svg width="300" height="300" viewBox="0 0 300 300" xmlns="http://www.w3.org/2000/svg">
  <rect width="300" height="300" fill="#f0f9ff"/>
  
  <!-- Beverages -->
  <g transform="translate(50, 50)">
    <!-- Soda bottle -->
    <path d="M30,20 L40,20 L42,40 C42,40 50,50 50,70 L50,150 C50,160 42,170 42,170 L40,190 L30,190 L28,170 C28,170 20,160 20,150 L20,70 C20,50 28,40 28,40 L30,20" fill="#ff9933"/>
    <path d="M30,20 L40,20 L42,40 L28,40 L30,20" fill="#ffcc00"/>
    <path d="M30,5 L40,5 L40,20 L30,20 L30,5" fill="#cccccc"/>
    
    <!-- Energy drink can -->
    <rect x="70" y="60" width="30" height="60" rx="5" ry="5" fill="#333333"/>
    <rect x="70" y="50" width="30" height="10" rx="5" ry="5" fill="#666666"/>
    <rect x="75" y="70" width="20" height="30" rx="2" ry="2" fill="#0066cc"/>
    <path d="M75,70 L95,70 L95,100 L75,100" fill="none" stroke="#ffcc00" stroke-width="2"/>
    
    <!-- Water bottle -->
    <path d="M130,30 L140,30 L142,40 C142,40 145,45 145,50 L145,180 C145,185 140,190 135,190 C130,190 125,185 125,180 L125,50 C125,45 128,40 128,40 L130,30" fill="#99ccff"/>
    <path d="M130,10 L140,10 L140,30 L130,30 L130,10" fill="#cccccc"/>
    
    <!-- Juice box -->
    <rect x="170" y="70" width="30" height="50" fill="#ff6600"/>
    <path d="M170,70 L200,70 L185,55 L170,70" fill="#ff9933"/>
    <rect x="180" y="80" width="10" height="20" fill="#ffffff"/>
    <text x="185" y="95" font-family="Arial" font-size="10" text-anchor="middle" fill="#ff6600">%100</text>
  </g>
  
  <text x="150" y="240" font-family="Arial" font-size="24" font-weight="bold" text-anchor="middle" fill="#0066cc">MARKET</text>
</svg>
