<?xml version="1.0" encoding="UTF-8"?>
<svg width="300" height="600" viewBox="0 0 300 600" xmlns="http://www.w3.org/2000/svg">
  <!-- Bottle neck -->
  <rect x="125" y="50" width="50" height="100" fill="#333" rx="5" ry="5"/>
  
  <!-- Bottle cap -->
  <rect x="125" y="20" width="50" height="30" fill="#333" rx="5" ry="5"/>
  <rect x="135" y="30" width="30" height="10" fill="#999"/>
  
  <!-- Bottle body -->
  <path d="M125,150 C80,200 80,400 80,450 L80,550 C80,565 95,580 110,580 L190,580 C205,580 220,565 220,550 L220,450 C220,400 220,200 175,150 Z" fill="#8a2be2"/>
  
  <!-- Bottle highlight -->
  <path d="M135,150 C100,200 100,400 100,450 L100,540 C100,550 110,560 120,560 L130,560 C140,560 150,550 150,540 L150,150 Z" fill="#9932cc" opacity="0.7"/>
  
  <!-- Bottle label -->
  <rect x="100" y="300" width="100" height="150" fill="#eee" rx="5" ry="5"/>
  <rect x="110" y="320" width="80" height="20" fill="#ccc"/>
  <rect x="110" y="350" width="80" height="10" fill="#ccc"/>
  <rect x="110" y="370" width="80" height="10" fill="#ccc"/>
  <rect x="110" y="390" width="80" height="10" fill="#ccc"/>
  <rect x="110" y="410" width="40" height="20" fill="#ccc"/>
</svg>
