<?xml version="1.0" encoding="UTF-8"?>
<svg width="300" height="300" viewBox="0 0 300 300" xmlns="http://www.w3.org/2000/svg">
  <rect width="300" height="300" fill="#f9f5e7"/>
  
  <!-- Bowl -->
  <ellipse cx="150" cy="170" rx="100" ry="30" fill="#d4a76a"/>
  <path d="M50,170 C50,153 100,140 150,140 C200,140 250,153 250,170" fill="none" stroke="#a67c52" stroke-width="3"/>
  
  <!-- Nuts -->
  <g>
    <!-- Hazelnut group -->
    <ellipse cx="100" cy="150" rx="15" ry="12" fill="#a67c52"/>
    <ellipse cx="110" cy="160" rx="15" ry="12" fill="#ba8c63"/>
    <ellipse cx="90" cy="165" rx="15" ry="12" fill="#a67c52"/>
    <ellipse cx="105" cy="175" rx="15" ry="12" fill="#ba8c63"/>
    <ellipse cx="120" cy="170" rx="15" ry="12" fill="#a67c52"/>
    
    <!-- Walnut group -->
    <path d="M160,150 C165,145 175,145 180,150 C185,155 185,165 180,170 C175,175 165,175 160,170 C155,165 155,155 160,150" fill="#8b5a2b"/>
    <path d="M190,160 C195,155 205,155 210,160 C215,165 215,175 210,180 C205,185 195,185 190,180 C185,175 185,165 190,160" fill="#8b5a2b"/>
    <path d="M170,175 C175,170 185,170 190,175 C195,180 195,190 190,195 C185,200 175,200 170,195 C165,190 165,180 170,175" fill="#8b5a2b"/>
    
    <!-- Almond group -->
    <ellipse cx="220" cy="155" rx="10" ry="15" transform="rotate(30 220 155)" fill="#e8d0aa"/>
    <ellipse cx="235" cy="165" rx="10" ry="15" transform="rotate(-20 235 165)" fill="#e8d0aa"/>
    <ellipse cx="215" cy="175" rx="10" ry="15" transform="rotate(10 215 175)" fill="#e8d0aa"/>
  </g>
  
  <text x="150" y="240" font-family="Arial" font-size="24" font-weight="bold" text-anchor="middle" fill="#8b5a2b">ÇEREZLER</text>
</svg>
